<svg xmlns="http://www.w3.org/2000/svg" version="1.1" xmlns:xlink="http://www.w3.org/1999/xlink" xmlns:svgjs="http://svgjs.dev/svgjs" width="309" height="250"><svg width="309" height="250" viewBox="0 0 309 250" fill="none" xmlns="http://www.w3.org/2000/svg">
<rect x="30.2517" y="115.385" width="100.962" height="19.2308" rx="9.61539" fill="#FF6100"></rect>
<rect x="0.804688" y="76.9229" width="112.981" height="19.2308" rx="9.61539" fill="#FF6100"></rect>
<rect x="30.2517" y="38.4614" width="88.6418" height="19.2308" rx="9.61539" fill="#FF6100"></rect>
<rect x="59.9995" width="97.3558" height="19.2308" rx="9.61539" fill="#FF6100"></rect>
<rect x="59.9995" y="153.846" width="93.149" height="19.2308" rx="9.61539" fill="#FF6100"></rect>
<rect x="89.7471" y="192.308" width="56.7909" height="19.2308" rx="9.61539" fill="#FF6100"></rect>
<rect x="122.8" y="230.769" width="19.2308" height="19.2308" rx="9.61539" fill="#FF6100"></rect>
<rect x="278.75" y="131.01" width="100.962" height="12.0192" rx="6.00962" transform="rotate(180 278.75 131.01)" fill="#092F4B"></rect>
<rect x="308.197" y="169.471" width="112.981" height="12.0192" rx="6.00962" transform="rotate(180 308.197 169.471)" fill="#092F4B"></rect>
<rect x="278.75" y="207.933" width="88.6418" height="12.0192" rx="6.00962" transform="rotate(180 278.75 207.933)" fill="#092F4B"></rect>
<rect x="249.002" y="246.394" width="97.3558" height="12.0192" rx="6.00962" transform="rotate(180 249.002 246.394)" fill="#092F4B"></rect>
<rect x="249.002" y="92.5479" width="93.149" height="12.0192" rx="6.00962" transform="rotate(180 249.002 92.5479)" fill="#092F4B"></rect>
<rect x="219.254" y="54.0864" width="56.7909" height="12.0192" rx="6.00962" transform="rotate(180 219.254 54.0864)" fill="#092F4B"></rect>
<rect x="186.201" y="19.231" width="19.2308" height="19.2308" rx="9.61539" transform="rotate(180 186.201 19.231)" fill="#092F4B"></rect>
</svg><style>@media (prefers-color-scheme: light) { :root { filter: none; } }
@media (prefers-color-scheme: dark) { :root { filter: none; } }
</style></svg>